<mxfile host="app.diagrams.net" modified="2024-07-19T16:50:36.472Z" agent="Mozilla/5.0 (Windows NT 10.0; Win64; x64) AppleWebKit/537.36 (KHTML, like Gecko) Chrome/126.0.0.0 Safari/537.36" version="24.7.2" etag="P-KDmeFCFmvW8WGRZ6Jk" type="github">
  <diagram name="PÃ¡gina-1" id="-9z29CkBJjF8F6FLdC2F">
    <mxGraphModel>
      <root>
        <mxCell id="0" />
        <mxCell id="1" parent="0" />
      </root>
    </mxGraphModel>
  </diagram>
</mxfile>
